# xmcd
#
# Track frame offsets:
#	150
#	19297
#	35172
#	49052
#	62972
#	81492
#	90205
#	105052
#	118762
#	136462
#
# Disc length: 2127 seconds
# Revision: 2
# Processed by: cddbd v1.5.2PL0 Copyright (c) Steve Scherf et al.
# Submitted via: dBpowerAMP V12.0
#
DISCID=82084d0a
DTITLE=Various Artist - New Country: Vol. 3, No. 7
DYEAR=1996
DGENRE=Country
TTITLE0=Roger Brown and Swing City - Swing City
TTITLE1=Smokin' Armadillos - Let Your Heart Lead Your Mind
TTITLE2=Charley Pride - Sea Of Heartbreak
TTITLE3=Mark Wills - Jacob's Ladder
TTITLE4=Tammy Rogers - You Will Miss Me
TTITLE5=BR549 - Hillbilly Thang
TTITLE6=Flaco Jimenez - Tico Taco Polka
TTITLE7=Bill Morrissey - Closed Down Mill
TTITLE8=Psychograss - Garlic and Sapphires
TTITLE9=Don Walser - Danny Boy
EXTD=
EXTT0=
EXTT1=
EXTT2=
EXTT3=
EXTT4=
EXTT5=
EXTT6=
EXTT7=
EXTT8=
EXTT9=
PLAYORDER=
